<svg width="1120" height="989" viewBox="0 0 1120 989" fill="none" xmlns="http://www.w3.org/2000/svg">
<path fill-rule="evenodd" clip-rule="evenodd" d="M1114.68 658.688L1070.3 647.078C1037.5 638.499 934.501 654.532 839.266 707.675C756.189 754.034 629.479 832.951 543.768 856.955C458.057 880.959 405.429 840.865 352.504 799.999C299.269 759.746 246.95 719.039 193.715 678.786C140.48 638.532 88.1622 597.826 17.2973 592.455C-53.8769 587.696 -141.765 617.367 -186.625 632.655L-230.569 647.491L-105.921 400.864L-73.7309 409.284C-40.9331 417.863 23.4478 434.702 88.4361 451.7C153.424 468.699 217.805 485.538 282.794 502.537C347.782 519.535 412.163 536.374 477.151 553.373C542.139 570.371 529.988 567.193 594.976 584.191C659.964 601.19 679.701 544.913 822.947 582.381C857.649 591.457 1037.5 638.499 1070.3 647.078L1114.68 658.688Z" fill="#7177F1" fill-opacity="0.3"/>
<path fill-rule="evenodd" clip-rule="evenodd" d="M1092 643.017L1059.81 634.597C1027.01 626.019 962.627 609.179 870.695 645.491C778.45 682.423 659.868 772.825 573.889 797.359C487.91 821.893 435.434 781.498 382.664 740.324C329.582 699.77 277.419 658.755 224.336 618.201C171.254 577.646 119.091 536.631 48.1504 531.411C-23.1039 526.81 -111.295 557.082 -156.312 572.679L-200.408 587.816L-74.1485 338L-41.9579 346.42C-9.16017 354.998 55.2207 371.838 120.209 388.836C185.197 405.835 249.578 422.674 314.566 439.672C379.555 456.671 443.936 473.51 508.924 490.509C573.912 507.507 638.293 524.346 703.281 541.345C768.27 558.343 832.65 575.183 897.639 592.181C962.627 609.179 1027.01 626.019 1059.81 634.597L1092 643.017Z" fill="#9297EF"/>
<path fill-rule="evenodd" clip-rule="evenodd" d="M883.364 623.443L841.551 612.506C810.654 604.425 750.879 545.817 728.83 461.997C709.596 388.877 687.378 271.007 646.879 213.992C606.381 156.976 533.979 164.368 460.695 172.222C387.72 179.464 315.008 187.467 242.033 194.71C169.059 201.952 96.347 209.955 41.0024 182.315C-14.0329 154.062 -51.1754 91.6884 -70.0095 59.74L-88.5806 28.5532L-213.228 275.18L-182.904 283.111C-152.007 291.193 -91.3577 307.056 -30.1364 323.069C31.0849 339.082 91.7341 354.946 152.955 370.959C214.177 386.972 274.826 402.835 336.047 418.848C397.268 434.861 385.821 431.867 447.042 447.88C508.264 463.893 473.594 516.263 608.537 551.559C641.227 560.11 810.654 604.425 841.551 612.506L883.364 623.443Z" fill="#7177F1" fill-opacity="0.3"/>
<path fill-rule="evenodd" clip-rule="evenodd" d="M853.55 625.381L823.225 617.449C792.329 609.368 731.679 593.504 697.402 524.181C663.437 454.237 656.989 331.133 616.759 273.587C576.528 216.042 503.974 223.734 430.534 231.897C357.407 239.44 284.54 247.752 211.413 255.295C138.286 262.837 65.4186 271.15 10.15 243.359C-44.8053 214.948 -81.6437 151.973 -100.322 119.716L-118.741 88.2283L-245 338.044L-214.676 345.975C-183.779 354.057 -123.13 369.92 -61.9087 385.933C-0.687429 401.946 59.9617 417.81 121.183 433.823C182.404 449.836 243.053 465.699 304.275 481.712C365.496 497.725 426.145 513.589 487.366 529.602C548.588 545.615 609.237 561.478 670.458 577.491C731.679 593.504 792.329 609.368 823.225 617.449L853.55 625.381Z" fill="#9297EF"/>
</svg>
